<svg width="631.763916" height="631.765381" viewBox="0 0 631.764 631.765" fill="none" xmlns="http://www.w3.org/2000/svg" xmlns:xlink="http://www.w3.org/1999/xlink">
	<desc>
			Created with Pixso.
	</desc>
	<defs/>
	<path id="Vector" d="M315.88 0C141.42 0 0 141.42 0 315.88C0 409.33 40.58 493.31 105.08 551.14L46.15 596.35C31.18 607.84 39.3 631.76 58.16 631.76L296.91 631.76C298.3 631.76 299.62 631.64 300.88 631.41C305.85 631.64 310.85 631.76 315.88 631.76C490.34 631.76 631.76 490.34 631.76 315.88C631.76 141.42 490.34 0 315.88 0Z" fill="#D2D5F9" fill-opacity="1.000000" fill-rule="evenodd"/>
	<path id="Vector" d="M217.16 315.88C217.16 337.69 199.49 355.37 177.68 355.37C155.87 355.37 138.19 337.69 138.19 315.88C138.19 294.07 155.87 276.39 177.68 276.39C199.49 276.39 217.16 294.07 217.16 315.88Z" fill="#002DE3" fill-opacity="1.000000" fill-rule="evenodd"/>
	<path id="Vector" d="M355.36 315.88C355.36 337.69 337.69 355.37 315.88 355.37C294.07 355.37 276.39 337.69 276.39 315.88C276.39 294.07 294.07 276.39 315.88 276.39C337.69 276.39 355.36 294.07 355.36 315.88Z" fill="#002DE3" fill-opacity="1.000000" fill-rule="evenodd"/>
	<path id="Vector" d="M493.56 315.88C493.56 337.69 475.88 355.37 454.08 355.37C432.27 355.37 414.59 337.69 414.59 315.88C414.59 294.07 432.27 276.39 454.08 276.39C475.88 276.39 493.56 294.07 493.56 315.88Z" fill="#002DE3" fill-opacity="1.000000" fill-rule="evenodd"/>
</svg>
