<svg width="51.612915" height="51.612915" viewBox="0 0 51.6129 51.6129" fill="none" xmlns="http://www.w3.org/2000/svg" xmlns:xlink="http://www.w3.org/1999/xlink">
	<desc>
			Created with Pixso.
	</desc>
	<defs/>
	<path id="Vector" d="M25.8 0C11.55 0 0 11.55 0 25.8C0 33.44 3.31 40.3 8.58 45.02L3.77 48.72C2.54 49.65 3.21 51.61 4.75 51.61L24.25 51.61C24.37 51.61 24.47 51.6 24.58 51.58C24.98 51.6 25.39 51.61 25.8 51.61C40.05 51.61 51.61 40.05 51.61 25.8C51.61 11.55 40.05 0 25.8 0Z" fill="#D2D5F9" fill-opacity="1.000000" fill-rule="evenodd"/>
	<path id="Vector" d="M17.74 25.8C17.74 27.58 16.29 29.03 14.51 29.03C12.73 29.03 11.29 27.58 11.29 25.8C11.29 24.02 12.73 22.58 14.51 22.58C16.29 22.58 17.74 24.02 17.74 25.8Z" fill="#002DE3" fill-opacity="1.000000" fill-rule="evenodd"/>
	<path id="Vector" d="M29.03 25.8C29.03 27.58 27.58 29.03 25.8 29.03C24.02 29.03 22.58 27.58 22.58 25.8C22.58 24.02 24.02 22.58 25.8 22.58C27.58 22.58 29.03 24.02 29.03 25.8Z" fill="#002DE3" fill-opacity="1.000000" fill-rule="evenodd"/>
	<path id="Vector" d="M40.32 25.8C40.32 27.58 38.87 29.03 37.09 29.03C35.31 29.03 33.87 27.58 33.87 25.8C33.87 24.02 35.31 22.58 37.09 22.58C38.87 22.58 40.32 24.02 40.32 25.8Z" fill="#002DE3" fill-opacity="1.000000" fill-rule="evenodd"/>
</svg>
